<svg width="69" height="69" viewBox="0 0 69 69" fill="none" xmlns="http://www.w3.org/2000/svg">
<path d="M31.0576 47.2158C31.7647 48.0643 33.0258 48.179 33.8744 47.4718C34.723 46.7647 34.8376 45.5036 34.1305 44.655L31.0576 47.2158ZM23.0646 34.5001L21.5282 33.2197C20.9101 33.9614 20.9101 35.0388 21.5282 35.7804L23.0646 34.5001ZM34.1305 24.3451C34.8376 23.4966 34.723 22.2354 33.8744 21.5283C33.0258 20.8212 31.7647 20.9358 31.0576 21.7844L34.1305 24.3451ZM45.9352 36.5001C47.0398 36.5001 47.9352 35.6046 47.9352 34.5001C47.9352 33.3955 47.0398 32.5001 45.9352 32.5001V36.5001ZM34.1305 44.655L24.601 33.2197L21.5282 35.7804L31.0576 47.2158L34.1305 44.655ZM24.601 35.7804L34.1305 24.3451L31.0576 21.7844L21.5282 33.2197L24.601 35.7804ZM23.0646 36.5001H45.9352V32.5001H23.0646V36.5001ZM17.6178 17.6178C26.9416 8.29406 42.0584 8.29406 51.3822 17.6178L54.2106 14.7894C43.3247 3.90353 25.6753 3.90353 14.7894 14.7894L17.6178 17.6178ZM51.3822 17.6178C60.7059 26.9416 60.7059 42.0584 51.3822 51.3822L54.2106 54.2106C65.0965 43.3247 65.0965 25.6753 54.2106 14.7894L51.3822 17.6178ZM51.3822 51.3822C42.0584 60.7059 26.9416 60.7059 17.6178 51.3822L14.7894 54.2106C25.6753 65.0965 43.3247 65.0965 54.2106 54.2106L51.3822 51.3822ZM17.6178 51.3822C8.29406 42.0584 8.29406 26.9416 17.6178 17.6178L14.7894 14.7894C3.90353 25.6753 3.90353 43.3247 14.7894 54.2106L17.6178 51.3822Z" fill="black"/>
</svg>
